<svg xmlns="http://www.w3.org/2000/svg" xmlns:xlink="http://www.w3.org/1999/xlink" xmlns:inkscape="http://www.inkscape.org/namespaces/inkscape" version="1.1" width="290" height="332" viewBox="0 0 290 332">
<g>
<path transform="matrix(1,0,0,-1,0,332)" d="M36 296H254V36H36Z" fill="#ffffff"/>
<path transform="matrix(1,0,0,-1,0,332)" stroke-width="1" stroke-linecap="butt" stroke-linejoin="round" fill="none" stroke="#000000" d="M250.164 274C250.164 264.059 217.406 256 177 256 136.594 256 103.836 264.059 103.836 274 103.836 283.941 136.594 292 177 292 217.406 292 250.164 283.941 250.164 274"/>
<text xml:space="preserve" transform="matrix(1 0 -0 1 0 332)" font-size="14.000244" font-family="NimbusRomNo9L"><tspan y="-270.30079" x="128.5 135.24813 141.25423 148.00235 151.75443 158.50255 165.25067 169.00275 173.49683 179.50293 186.25106 191.50115 197.50725 203.49936 207.25144 211.00351 217.75164">begin_transaction</tspan></text>
<path transform="matrix(1,0,0,-1,0,332)" stroke-width="1" stroke-linecap="butt" stroke-linejoin="round" fill="none" stroke="#000000" d="M131.371 202C131.371 192.059 112.398 184 89 184 65.602 184 46.629 192.059 46.629 202 46.629 211.941 65.602 220 89 220 112.398 220 131.371 211.941 131.371 202"/>
<text xml:space="preserve" transform="matrix(1 0 -0 1 0 332)" font-size="14.000244" font-family="NimbusRomNo9L"><tspan y="-198.30078" x="64.5 68.25207 72.74615 78.75225 85.50037 90.75046 95.25854 101.25064 105.75872">transfer8</tspan></text>
<path transform="matrix(1,0,0,-1,0,332)" stroke-width="1" stroke-linecap="butt" stroke-linejoin="round" fill="none" stroke="#000000" d="M156.145 256.41C144.223 246.926 129.125 234.918 116.27 224.691"/>
<path transform="matrix(1,0,0,-1,0,332)" d="M118.207 221.762 108.203 218.273 113.848 227.238ZM118.207 221.762"/>
<path transform="matrix(1,0,0,-1,0,332)" stroke-width="1" stroke-linecap="butt" stroke-linejoin="round" fill="none" stroke="#000000" d="M118.207 221.762 108.203 218.273 113.848 227.238ZM118.207 221.762"/>
<path transform="matrix(1,0,0,-1,0,332)" stroke-width="1" stroke-linecap="butt" stroke-linejoin="round" fill="none" stroke="#000000" d="M152.219 130C152.219 120.059 131.527 112 106 112 80.473 112 59.781 120.059 59.781 130 59.781 139.941 80.473 148 106 148 131.527 148 152.219 139.941 152.219 130"/>
<text xml:space="preserve" transform="matrix(1 0 -0 1 0 332)" font-size="14.000244" font-family="NimbusRomNo9L"><tspan y="-126.30078" x="78.5 82.25207 86.74615 92.75225 99.50037 104.75046 109.25854 115.25064 119.75872 126.506839">transfer32</tspan></text>
<path transform="matrix(1,0,0,-1,0,332)" stroke-width="1" stroke-linecap="butt" stroke-linejoin="round" fill="none" stroke="#000000" d="M176.184 255.961C174.668 237.297 170.34 206.965 158 184 151.852 172.555 142.484 161.91 133.387 153.203"/>
<path transform="matrix(1,0,0,-1,0,332)" d="M135.633 150.52 125.883 146.375 130.922 155.695ZM135.633 150.52"/>
<path transform="matrix(1,0,0,-1,0,332)" stroke-width="1" stroke-linecap="butt" stroke-linejoin="round" fill="none" stroke="#000000" d="M135.633 150.52 125.883 146.375 130.922 155.695ZM135.633 150.52"/>
<path transform="matrix(1,0,0,-1,0,332)" stroke-width="1" stroke-linecap="butt" stroke-linejoin="round" fill="none" stroke="#000000" d="M118.637 214.941C134.523 217.141 149 212.828 149 202 149 193.539 140.164 189.059 128.723 188.547"/>
<path transform="matrix(1,0,0,-1,0,332)" d="M128.449 185.059 118.637 189.059 128.801 192.051ZM128.449 185.059"/>
<path transform="matrix(1,0,0,-1,0,332)" stroke-width="1" stroke-linecap="butt" stroke-linejoin="round" fill="none" stroke="#000000" d="M128.449 185.059 118.637 189.059 128.801 192.051ZM128.449 185.059"/>
<path transform="matrix(1,0,0,-1,0,332)" stroke-width="1" stroke-linecap="butt" stroke-linejoin="round" fill="none" stroke="#000000" d="M87.285 183.695C88.406 175.695 90.543 166.02 93.094 157.156"/>
<path transform="matrix(1,0,0,-1,0,332)" d="M96.43 158.211 96.121 147.621 89.758 156.094ZM96.43 158.211"/>
<path transform="matrix(1,0,0,-1,0,332)" stroke-width="1" stroke-linecap="butt" stroke-linejoin="round" fill="none" stroke="#000000" d="M96.43 158.211 96.121 147.621 89.758 156.094ZM96.43 158.211"/>
<path transform="matrix(1,0,0,-1,0,332)" stroke-width="1" stroke-linecap="butt" stroke-linejoin="round" fill="none" stroke="#000000" d="M107.695 148.445C106.578 156.355 104.477 165.879 101.969 174.629"/>
<path transform="matrix(1,0,0,-1,0,332)" d="M98.555 173.82 98.867 184.41 105.227 175.938ZM98.555 173.82"/>
<path transform="matrix(1,0,0,-1,0,332)" stroke-width="1" stroke-linecap="butt" stroke-linejoin="round" fill="none" stroke="#000000" d="M98.555 173.82 98.867 184.41 105.227 175.938ZM98.555 173.82"/>
<path transform="matrix(1,0,0,-1,0,332)" stroke-width="1" stroke-linecap="butt" stroke-linejoin="round" fill="none" stroke="#000000" d="M137.941 142.984C154.758 145.086 170 140.758 170 130 170 121.512 160.512 117.027 148.246 116.543"/>
<path transform="matrix(1,0,0,-1,0,332)" d="M147.773 113.062 137.941 117.016 148.09 120.055ZM147.773 113.062"/>
<path transform="matrix(1,0,0,-1,0,332)" stroke-width="1" stroke-linecap="butt" stroke-linejoin="round" fill="none" stroke="#000000" d="M147.773 113.062 137.941 117.016 148.09 120.055ZM147.773 113.062"/>
<path transform="matrix(1,0,0,-1,0,332)" stroke-width="1" stroke-linecap="butt" stroke-linejoin="round" fill="none" stroke="#000000" d="M171.941 58C171.941 48.059 142.418 40 106 40 69.582 40 40.059 48.059 40.059 58 40.059 67.941 69.582 76 106 76 142.418 76 171.941 67.941 171.941 58"/>
<text xml:space="preserve" transform="matrix(1 0 -0 1 0 332)" font-size="14.000244" font-family="NimbusRomNo9L"><tspan y="-54.30078" x="63 69.0061 75.75422 82.502338 89.25045 93.00252 97.4966 103.5027 110.25082 115.50091 121.50701 127.499118 131.25119 135.00327 141.75139">end_transaction</tspan></text>
<path transform="matrix(1,0,0,-1,0,332)" stroke-width="1" stroke-linecap="butt" stroke-linejoin="round" fill="none" stroke="#000000" d="M100.121 112.055C99.305 104.344 99.062 95.027 99.395 86.363"/>
<path transform="matrix(1,0,0,-1,0,332)" d="M102.895 86.492 100.086 76.273 95.91 86.012ZM102.895 86.492"/>
<path transform="matrix(1,0,0,-1,0,332)" stroke-width="1" stroke-linecap="butt" stroke-linejoin="round" fill="none" stroke="#000000" d="M102.895 86.492 100.086 76.273 95.91 86.012ZM102.895 86.492"/>
<path transform="matrix(1,0,0,-1,0,332)" stroke-width="1" stroke-linecap="butt" stroke-linejoin="round" fill="none" stroke="#000000" d="M111.879 112.055C112.695 104.344 112.938 95.027 112.605 86.363"/>
<path transform="matrix(1,0,0,-1,0,332)" d="M116.09 86.012 111.914 76.273 109.105 86.492ZM116.09 86.012"/>
<path transform="matrix(1,0,0,-1,0,332)" stroke-width="1" stroke-linecap="butt" stroke-linejoin="round" fill="none" stroke="#000000" d="M116.09 86.012 111.914 76.273 109.105 86.492ZM116.09 86.012"/>
<path transform="matrix(1,0,0,-1,0,332)" stroke-width="1" stroke-linecap="butt" stroke-linejoin="round" fill="none" stroke="#000000" d="M138.691 73.805C153.891 82.562 170.465 95.258 179 112 200.766 154.699 192.48 212.414 184.633 245.883"/>
<path transform="matrix(1,0,0,-1,0,332)" d="M181.172 245.301 182.141 255.848 187.961 247ZM181.172 245.301"/>
<path transform="matrix(1,0,0,-1,0,332)" stroke-width="1" stroke-linecap="butt" stroke-linejoin="round" fill="none" stroke="#000000" d="M181.172 245.301 182.141 255.848 187.961 247ZM181.172 245.301"/>
</g>
</svg>
